<?xml version="1.0" standalone="no"?>
<!DOCTYPE svg PUBLIC "-//W3C//DTD SVG 1.1//EN" "http://www.w3.org/Graphics/SVG/1.1/DTD/svg11.dtd" >
<svg xmlns="http://www.w3.org/2000/svg">
<metadata>Generated by IcoMoon</metadata>
<defs>
<font id="kipr_icons_font" horiz-adv-x="1024">
<font-face units-per-em="1024" ascent="960" descent="-64" />
<missing-glyph horiz-adv-x="1024" />
<glyph unicode="&#x20;" horiz-adv-x="512" d="" />
<glyph unicode="&#xe9000;" glyph-name="user" d="M256 704c0-141.44 114.56-256 256-256s256 114.56 256 256c0 141.44-114.56 256-256 256s-256-114.56-256-256zM512 345.6c-358.4 0-512-102.4-512-204.8v-204.8h1024v204.8c0 102.4-153.6 204.8-512 204.8z" />
<glyph unicode="&#xe9001;" glyph-name="user-outline" d="M256 704c0-141.44 114.56-256 256-256s256 114.56 256 256c0 141.44-114.56 256-256 256s-256-114.56-256-256zM691.2 704c0-98.987-80.213-179.2-179.2-179.2s-179.2 80.213-179.2 179.2c0 98.987 80.213 179.2 179.2 179.2s179.2-80.213 179.2-179.2zM512 345.6c358.4 0 512-102.4 512-204.8v-204.8h-1024v204.8c0 102.4 153.6 204.8 512 204.8zM512 268.8c-332.8 0-435.2-76.8-435.2-179.2v-76.8h870.4v76.8c0 102.4-102.4 179.2-435.2 179.2z" />
<glyph unicode="&#xe9002;" glyph-name="discussion" d="M768 909.026v-461.253c0-28.198-22.822-50.974-50.974-50.974h-512.226l-204.8-204.8v716.417c0 28.598 23.095 51.583 51.583 51.583h664.834c28.598 0 51.583-22.822 51.583-50.974zM942.080 755.2h30.504c28.16 0 51.416-22.943 51.416-51.245v-767.955l-204.8 204.8h-563.073c-27.992 0-51.327 22.743-51.327 50.799v26.001h737.28v537.6z" />
<glyph unicode="&#xe9003;" glyph-name="discussion-outline" d="M768 909.026v-461.253c0-28.198-22.822-50.974-50.974-50.974h-512.226l-204.8-204.8v716.417c0 28.598 23.095 51.583 51.583 51.583h664.834c28.598 0 51.583-22.822 51.583-50.974zM691.2 857.578c0 14.151-11.725 25.622-25.618 25.622h-563.164c-14.148 0-25.618-11.656-25.618-26.094v-485.906l102.4 102.4h485.906c14.411 0 26.094 11.817 26.094 25.622v358.355zM942.080 755.2h30.504c28.16 0 51.416-22.943 51.416-51.245v-767.955l-204.8 204.8h-563.073c-27.992 0-51.327 22.743-51.327 50.799v26.001h737.28v537.6z" />
<glyph unicode="&#xe9004;" glyph-name="feed" d="M345.6 960h332.8c21.208 0 38.4-17.192 38.4-38.4s-17.192-38.4-38.4-38.4h-332.8c-21.208 0-38.4 17.192-38.4 38.4s17.192 38.4 38.4 38.4zM192 755.2h640c21.208 0 38.4-17.192 38.4-38.4s-17.192-38.4-38.4-38.4h-640c-21.208 0-38.4 17.192-38.4 38.4s17.192 38.4 38.4 38.4zM102.4 550.4h819.2c56.554 0 102.4-45.846 102.4-102.4v-409.6c0-56.554-45.846-102.4-102.4-102.4h-819.2c-56.554 0-102.4 45.846-102.4 102.4v409.6c0 56.554 45.846 102.4 102.4 102.4zM204.8 115.2h614.4l-230.4 256-128-179.712-102.4 102.912-153.6-179.2z" />
<glyph unicode="&#xe9005;" glyph-name="feed-outline" d="M345.6 960h332.8c21.208 0 38.4-17.192 38.4-38.4s-17.192-38.4-38.4-38.4h-332.8c-21.208 0-38.4 17.192-38.4 38.4s17.192 38.4 38.4 38.4zM192 755.2h640c21.208 0 38.4-17.192 38.4-38.4s-17.192-38.4-38.4-38.4h-640c-21.208 0-38.4 17.192-38.4 38.4s17.192 38.4 38.4 38.4zM102.4 550.4h819.2c56.554 0 102.4-45.846 102.4-102.4v-409.6c0-56.554-45.846-102.4-102.4-102.4h-819.2c-56.554 0-102.4 45.846-102.4 102.4v409.6c0 56.554 45.846 102.4 102.4 102.4zM128 473.6c-28.277 0-51.2-22.923-51.2-51.2v-358.4c0-28.277 22.923-51.2 51.2-51.2h768c28.277 0 51.2 22.923 51.2 51.2v358.4c0 28.277-22.923 51.2-51.2 51.2h-768zM204.8 115.2l153.6 179.2 102.4-102.912 128 179.712 230.4-256h-614.4z" />
<glyph unicode="&#xe9006;" glyph-name="materials" d="M0 601.6l512 307.2 512-307.2-512-307.2-512 307.2zM153.6 151.040v256l358.4-215.040 307.2 184.264v-255.944l-307.2-184.32-358.4 215.040zM947.2 460.8l76.8 38.4v-307.2h-76.8v268.8z" />
<glyph unicode="&#xe9007;" glyph-name="materials-outline" d="M0 652.8l512 307.2 512-307.2-512-307.2-512 307.2zM150.287 652.8l361.713-204.8 358.562 204.8-358.562 204.8-361.713-204.8zM153.6 120.32v337.92l358.4-215.040 307.2 184.264v-307.144l-307.2-184.32-358.4 184.32zM230.375 309.73v-138.21l281.625-133.12 230.092 133.12 0.308 107.52-230.4-138.24-281.625 168.93zM947.2 460.8l76.8 38.4v-307.2h-76.8v268.8z" />
<glyph unicode="&#xe9008;" glyph-name="news" d="M0 858.071c0 56.294 45.799 101.929 102.096 101.929h615.008c56.386 0 102.096-45.991 102.096-102.293v-204.907h102.4c56.554 0 102.4-45.929 102.4-102.7v-460.328c0-84.926-68.778-153.772-153.303-153.772h-768.768c-56.294 0-101.929 45.988-101.929 101.929v820.143zM947.2 524.866c0 28.241-22.884 51.134-51.325 51.134h-76.675v-486.4c0 0 0-76.8 64-76.8s64 76.8 64 76.8v435.266zM153.6 716.8c0-21.356 17.23-38.4 38.483-38.4h435.034c21.448 0 38.483 17.192 38.483 38.4 0 21.356-17.23 38.4-38.483 38.4h-435.034c-21.448 0-38.483-17.192-38.483-38.4zM153.6 499.408v-282.016c0-28.121 22.893-50.992 51.133-50.992h128.134c28.199 0 51.133 22.83 51.133 50.992v282.016c0 28.121-22.893 50.992-51.133 50.992h-128.134c-28.199 0-51.133-22.83-51.133-50.992zM230.4 448.063c0 14.104 11.332 25.537 26.001 25.537h24.798c14.36 0 26.001-11.113 26.001-25.537v-179.326c0-14.104-11.332-25.537-26.001-25.537h-24.798c-14.36 0-26.001 11.113-26.001 25.537v179.326zM460.8 512c0-21.356 17.247-38.4 38.521-38.4h127.757c21.060 0 38.521 17.192 38.521 38.4 0 21.356-17.247 38.4-38.521 38.4h-127.757c-21.060 0-38.521-17.192-38.521-38.4zM460.8 358.4c0-21.356 17.247-38.4 38.521-38.4h127.757c21.060 0 38.521 17.192 38.521 38.4 0 21.356-17.247 38.4-38.521 38.4h-127.757c-21.060 0-38.521-17.192-38.521-38.4zM460.8 204.8c0-21.356 17.071-38.4 38.13-38.4h26.14c21.221 0 38.13 17.192 38.13 38.4 0 21.356-17.071 38.4-38.13 38.4h-26.14c-21.221 0-38.13-17.192-38.13-38.4z" />
<glyph unicode="&#xe9009;" glyph-name="news-outline" d="M0 858.071c0 56.294 45.799 101.929 102.096 101.929h615.008c56.386 0 102.096-45.991 102.096-102.293v-204.907h102.4c56.554 0 102.4-45.929 102.4-102.7v-460.328c0-84.926-68.778-153.772-153.303-153.772h-768.768c-56.294 0-101.929 45.988-101.929 101.929v820.143zM76.8 832.002v-768.004c0-27.917 22.755-51.198 50.826-51.198h640.374c0 0-25.6 0-25.6 102.4v716.417c0 28.598-22.889 51.583-51.123 51.583h-563.353c-28.212 0-51.123-22.922-51.123-51.198zM947.2 524.866c0 28.241-22.884 51.134-51.325 51.134h-76.675v-486.4c0 0 0-76.8 64-76.8s64 76.8 64 76.8v435.266zM153.6 716.8c0 21.208 17.035 38.4 38.483 38.4h435.034c21.254 0 38.483-17.044 38.483-38.4 0-21.208-17.035-38.4-38.483-38.4h-435.034c-21.254 0-38.483 17.044-38.483 38.4zM153.6 499.408c0 28.162 22.934 50.992 51.133 50.992h128.134c28.24 0 51.133-22.871 51.133-50.992v-282.016c0-28.162-22.934-50.992-51.133-50.992h-128.134c-28.24 0-51.133 22.871-51.133 50.992v282.016zM230.4 448.063v-179.326c0-14.424 11.641-25.537 26.001-25.537h24.798c14.669 0 26.001 11.433 26.001 25.537v179.326c0 14.424-11.641 25.537-26.001 25.537h-24.798c-14.669 0-26.001-11.433-26.001-25.537zM460.8 512c0 21.208 17.461 38.4 38.521 38.4h127.757c21.275 0 38.521-17.044 38.521-38.4 0-21.208-17.461-38.4-38.521-38.4h-127.757c-21.275 0-38.521 17.044-38.521 38.4zM460.8 358.4c0 21.208 17.461 38.4 38.521 38.4h127.757c21.275 0 38.521-17.044 38.521-38.4 0-21.208-17.461-38.4-38.521-38.4h-127.757c-21.275 0-38.521 17.044-38.521 38.4zM460.8 204.8c0 21.208 16.909 38.4 38.13 38.4h26.14c21.059 0 38.13-17.044 38.13-38.4 0-21.208-16.909-38.4-38.13-38.4h-26.14c-21.059 0-38.13 17.044-38.13 38.4z" />
<glyph unicode="&#xe900a;" glyph-name="product" d="M67.006 592.994h188.71l214.876 300.525c16.447 23.002 48.426 28.317 71.428 11.87 4.497-3.215 8.444-7.138 11.687-11.615l217.853-300.779h185.354c28.277 0 51.2-22.923 51.2-51.2 0-4.557-0.608-9.093-1.809-13.489l-115.548-423.089c-12.162-44.533-52.618-75.422-98.782-75.422h-560.191c-46.177 0-86.642 30.907-98.792 75.457l-115.383 423.072c-7.44 27.281 8.644 55.427 35.924 62.868 4.39 1.197 8.921 1.804 13.472 1.804zM332.772 592.994h358.4l-169.096 217.41c-4.34 5.58-12.382 6.585-17.962 2.245-0.839-0.652-1.593-1.407-2.245-2.245l-169.096-217.41zM512 179.2c70.692 0 128 57.308 128 128s-57.308 128-128 128c-70.692 0-128-57.308-128-128s57.308-128 128-128z" />
<glyph unicode="&#xe900b;" glyph-name="product-outline" d="M67.006 592.994h188.71l214.876 300.525c16.447 23.002 48.426 28.317 71.428 11.87 4.497-3.215 8.444-7.138 11.687-11.615l217.853-300.779h185.354c28.277 0 51.2-22.923 51.2-51.2 0-4.557-0.608-9.093-1.809-13.489l-115.548-423.089c-12.162-44.533-52.618-75.422-98.782-75.422h-560.191c-46.177 0-86.642 30.907-98.792 75.457l-115.383 423.072c-7.44 27.281 8.644 55.427 35.924 62.868 4.39 1.197 8.921 1.804 13.472 1.804zM332.772 592.994h358.4l-169.096 217.41c-4.34 5.58-12.382 6.585-17.962 2.245-0.839-0.652-1.593-1.407-2.245-2.245l-169.096-217.41zM135.963 516.194c-2.294 0-4.577-0.308-6.788-0.916-13.632-3.749-21.645-17.839-17.896-31.472l93.387-339.588c6.111-22.223 26.319-37.624 49.367-37.624h515.878c23.048 0 43.256 15.401 49.367 37.624l93.387 339.588c0.608 2.211 0.916 4.495 0.916 6.788 0 14.138-11.462 25.6-25.6 25.6h-752.019zM512 179.2c-70.692 0-128 57.308-128 128s57.308 128 128 128c70.692 0 128-57.308 128-128s-57.308-128-128-128zM512 256c28.277 0 51.2 22.923 51.2 51.2s-22.923 51.2-51.2 51.2c-28.277 0-51.2-22.923-51.2-51.2s22.923-51.2 51.2-51.2z" />
<glyph unicode="&#xe900c;" glyph-name="records" d="M102.4 960h204.8c56.554 0 102.4-45.846 102.4-102.4v-307.2c0-56.554-45.846-102.4-102.4-102.4h-204.8c-56.554 0-102.4 45.846-102.4 102.4v307.2c0 56.554 45.846 102.4 102.4 102.4zM102.4 294.4h204.8c56.554 0 102.4-45.846 102.4-102.4v-153.6c0-56.554-45.846-102.4-102.4-102.4h-204.8c-56.554 0-102.4 45.846-102.4 102.4v153.6c0 56.554 45.846 102.4 102.4 102.4zM665.6 960h204.8c56.554 0 102.4-45.846 102.4-102.4v-153.6c0-56.554-45.846-102.4-102.4-102.4h-204.8c-56.554 0-102.4 45.846-102.4 102.4v153.6c0 56.554 45.846 102.4 102.4 102.4zM665.6 448h204.8c56.554 0 102.4-45.846 102.4-102.4v-307.2c0-56.554-45.846-102.4-102.4-102.4h-204.8c-56.554 0-102.4 45.846-102.4 102.4v307.2c0 56.554 45.846 102.4 102.4 102.4z" />
<glyph unicode="&#xe900d;" glyph-name="records-outline" d="M102.4 960h204.8c56.554 0 102.4-45.846 102.4-102.4v-307.2c0-56.554-45.846-102.4-102.4-102.4h-204.8c-56.554 0-102.4 45.846-102.4 102.4v307.2c0 56.554 45.846 102.4 102.4 102.4zM128 883.2c-28.277 0-51.2-22.923-51.2-51.2v-256c0-28.277 22.923-51.2 51.2-51.2h153.6c28.277 0 51.2 22.923 51.2 51.2v256c0 28.277-22.923 51.2-51.2 51.2h-153.6zM102.4 294.4h204.8c56.554 0 102.4-45.846 102.4-102.4v-153.6c0-56.554-45.846-102.4-102.4-102.4h-204.8c-56.554 0-102.4 45.846-102.4 102.4v153.6c0 56.554 45.846 102.4 102.4 102.4zM128 217.6c-28.277 0-51.2-22.923-51.2-51.2v-102.4c0-28.277 22.923-51.2 51.2-51.2h153.6c28.277 0 51.2 22.923 51.2 51.2v102.4c0 28.277-22.923 51.2-51.2 51.2h-153.6zM665.6 960h204.8c56.554 0 102.4-45.846 102.4-102.4v-153.6c0-56.554-45.846-102.4-102.4-102.4h-204.8c-56.554 0-102.4 45.846-102.4 102.4v153.6c0 56.554 45.846 102.4 102.4 102.4zM691.2 883.2c-28.277 0-51.2-22.923-51.2-51.2v-102.4c0-28.277 22.923-51.2 51.2-51.2h153.6c28.277 0 51.2 22.923 51.2 51.2v102.4c0 28.277-22.923 51.2-51.2 51.2h-153.6zM665.6 448h204.8c56.554 0 102.4-45.846 102.4-102.4v-307.2c0-56.554-45.846-102.4-102.4-102.4h-204.8c-56.554 0-102.4 45.846-102.4 102.4v307.2c0 56.554 45.846 102.4 102.4 102.4zM691.2 371.2c-28.277 0-51.2-22.923-51.2-51.2v-256c0-28.277 22.923-51.2 51.2-51.2h153.6c28.277 0 51.2 22.923 51.2 51.2v256c0 28.277-22.923 51.2-51.2 51.2h-153.6z" />
<glyph unicode="&#xe900e;" glyph-name="reports" d="M51.2 448h153.6c28.277 0 51.2-22.923 51.2-51.2v-460.8h-256v460.8c0 28.277 22.923 51.2 51.2 51.2zM409.6 652.8h153.6c28.277 0 51.2-22.923 51.2-51.2v-665.6h-256v665.6c0 28.277 22.923 51.2 51.2 51.2zM768 960h153.6c28.277 0 51.2-22.923 51.2-51.2v-972.8h-256v972.8c0 28.277 22.923 51.2 51.2 51.2z" />
<glyph unicode="&#xe900f;" glyph-name="reports-outline" d="M51.2 448h153.6c28.277 0 51.2-22.923 51.2-51.2v-460.8h-256v460.8c0 28.277 22.923 51.2 51.2 51.2zM102.4 371.2c-14.138 0-25.6-11.462-25.6-25.6v-332.8h102.4v332.8c0 14.138-11.462 25.6-25.6 25.6h-51.2zM409.6 652.8h153.6c28.277 0 51.2-22.923 51.2-51.2v-665.6h-256v665.6c0 28.277 22.923 51.2 51.2 51.2zM460.8 576c-14.138 0-25.6-11.462-25.6-25.6v-537.6h102.4v537.6c0 14.138-11.462 25.6-25.6 25.6h-51.2zM768 960h153.6c28.277 0 51.2-22.923 51.2-51.2v-972.8h-256v972.8c0 28.277 22.923 51.2 51.2 51.2zM819.2 883.2c-14.138 0-25.6-11.462-25.6-25.6v-844.8h102.4v844.8c0 14.138-11.462 25.6-25.6 25.6h-51.2z" />
<glyph unicode="&#xe9010;" glyph-name="test" d="M656.384 857.6h214.016c56.32 0 102.4-46.080 102.4-102.4v-716.8c0-56.32-46.080-102.4-102.4-102.4h-716.8c-56.32 0-102.4 46.080-102.4 102.4v716.8c0 56.32 46.080 102.4 102.4 102.4h214.016c21.504 59.392 77.824 102.4 144.384 102.4s122.88-43.008 144.384-102.4zM563.2 806.4c0 28.16-23.040 51.2-51.2 51.2s-51.2-23.040-51.2-51.2c0-28.16 23.040-51.2 51.2-51.2s51.2 23.040 51.2 51.2zM294.4 550.4c-21.208 0-38.4-17.192-38.4-38.4s17.192-38.4 38.4-38.4h435.2c21.208 0 38.4 17.192 38.4 38.4s-17.192 38.4-38.4 38.4h-435.2zM294.4 396.8c-21.208 0-38.4-17.192-38.4-38.4s17.192-38.4 38.4-38.4h435.2c21.208 0 38.4 17.192 38.4 38.4s-17.192 38.4-38.4 38.4h-435.2zM294.4 243.2c-21.208 0-38.4-17.192-38.4-38.4s17.192-38.4 38.4-38.4h230.4c21.208 0 38.4 17.192 38.4 38.4s-17.192 38.4-38.4 38.4h-230.4z" />
<glyph unicode="&#xe9011;" glyph-name="test-outline" d="M656.384 857.6c-21.504 59.392-77.824 102.4-144.384 102.4s-122.88-43.008-144.384-102.4h-214.016c-56.32 0-102.4-46.080-102.4-102.4v-716.8c0-56.32 46.080-102.4 102.4-102.4h716.8c56.32 0 102.4 46.080 102.4 102.4v716.8c0 56.32-46.080 102.4-102.4 102.4h-214.016zM563.2 806.4c0-28.16-23.040-51.2-51.2-51.2s-51.2 23.040-51.2 51.2c0 28.16 23.040 51.2 51.2 51.2s51.2-23.040 51.2-51.2zM179.583 12.8c-28.489 0-51.583 22.985-51.583 51.583v664.834c0 28.489 22.884 51.583 51.325 51.583h76.675v-51.2c0-28.277 23.33-51.2 50.964-51.2h410.071c28.147 0 50.964 22.726 50.964 51.2v51.2h76.675c28.346 0 51.325-22.985 51.325-51.583v-664.834c0-28.489-22.985-51.583-51.583-51.583h-664.834zM294.4 550.4c-21.208 0-38.4-17.192-38.4-38.4s17.192-38.4 38.4-38.4h435.2c21.208 0 38.4 17.192 38.4 38.4s-17.192 38.4-38.4 38.4h-435.2zM294.4 396.8c-21.208 0-38.4-17.192-38.4-38.4s17.192-38.4 38.4-38.4h435.2c21.208 0 38.4 17.192 38.4 38.4s-17.192 38.4-38.4 38.4h-435.2zM294.4 243.2c-21.208 0-38.4-17.192-38.4-38.4s17.192-38.4 38.4-38.4h230.4c21.208 0 38.4 17.192 38.4 38.4s-17.192 38.4-38.4 38.4h-230.4z" />
<glyph unicode="&#xe9012;" glyph-name="users" d="M0 176.64v-138.24h651.636v138.24c0 119.296-199.739 168.96-325.818 168.96-69.818 0-325.818-40.96-325.818-168.96zM700.602 342.437c-14.892-1.479-29.324-5.627-44.161-9.952 53.993-43.008 88.287-90.309 88.287-166.085v-128h279.273v147.955c-9.717 123.641-232.995 174.533-323.398 156.082zM512 652.8c0 112.933-91.867 204.8-204.8 204.8s-204.8-91.867-204.8-204.8c0-112.933 91.867-204.8 204.8-204.8s204.8 91.867 204.8 204.8zM921.6 601.6c0 84.699-68.901 153.6-153.6 153.6s-153.6-68.901-153.6-153.6c0-84.699 68.901-153.6 153.6-153.6s153.6 68.901 153.6 153.6z" />
<glyph unicode="&#xe9013;" glyph-name="users-outline" d="M563.2 294.4c-73.216 34.304-168.96 51.2-230.4 51.2-111.104 0-332.8-55.296-332.8-166.4v-140.8h1024v140.8c0 111.104-170.496 166.4-281.6 166.4-61.44 0-105.984-17.408-179.2-51.2zM76.8 115.2v64c0 27.648 131.072 89.6 256 89.6s256-61.952 256-89.6v-64h-512zM665.6 115.2v64c0 23.552-10.24 44.032-26.624 62.464 45.056 15.36 49.152 27.136 103.424 27.136 124.928 0 204.8-61.952 204.8-89.6v-64h-281.6zM512 652.8c0 112.933-91.867 204.8-204.8 204.8s-204.8-91.867-204.8-204.8c0-112.933 91.867-204.8 204.8-204.8s204.8 91.867 204.8 204.8zM435.2 652.8c0-70.4-57.6-128-128-128s-128 57.6-128 128c0 70.4 57.6 128 128 128s128-57.6 128-128zM921.6 601.6c0 84.699-68.901 153.6-153.6 153.6s-153.6-68.901-153.6-153.6c0-84.699 68.901-153.6 153.6-153.6s153.6 68.901 153.6 153.6zM844.8 601.6c0-42.24-34.56-76.8-76.8-76.8s-76.8 34.56-76.8 76.8c0 42.24 34.56 76.8 76.8 76.8s76.8-34.56 76.8-76.8z" />
<glyph unicode="&#xe9014;" glyph-name="password" d="M146.286 594.286c24.381 243.81 146.286 365.714 365.714 365.714s341.333-121.905 365.714-365.714l36.571-0.001c60.593 0 109.714-49.12 109.714-109.713l0.005-438.864c0-60.594-49.12-109.715-109.713-109.715 0 0-0.001 0-0.001 0l-804.576 0.001c-60.594 0-109.714 49.121-109.714 109.714v438.864c0 60.594 49.121 109.714 109.714 109.714h36.571zM292.571 594.286h438.857c-24.381 146.286-97.524 219.429-219.429 219.429s-195.048-73.143-219.429-219.429zM512 155.429c60.594 0 109.714 49.121 109.714 109.714s-49.121 109.714-109.714 109.714c-60.594 0-109.714-49.121-109.714-109.714s49.121-109.714 109.714-109.714z" />
<glyph unicode="&#xe9015;" glyph-name="show" d="M512 886.857c232.727 0 431.476-166.814 512-402.286-80.524-235.471-279.273-402.286-512-402.286s-431.476 166.814-512 402.286c80.524 235.471 279.273 402.286 512 402.286zM512 704c-121.417 0-219.429-98.011-219.429-219.429s98.011-219.429 219.429-219.429c121.417 0 219.429 98.011 219.429 219.429s-98.011 219.429-219.429 219.429zM512 594.286c60.709 0 109.714-49.006 109.714-109.714s-49.006-109.714-109.714-109.714c-60.709 0-109.714 49.006-109.714 109.714s49.006 109.714 109.714 109.714z" />
<glyph unicode="&#xe9016;" glyph-name="like" d="M742.4 896c-89.088 0-174.592-41.472-230.4-107.008-55.808 65.536-141.312 107.008-230.4 107.008-157.696 0-281.6-123.904-281.6-281.6 0-193.536 174.080-351.232 437.76-590.848l74.24-67.072 74.24 67.584c263.68 239.104 437.76 396.8 437.76 590.336 0 157.696-123.904 281.6-281.6 281.6v0z" />
<glyph unicode="&#xe9017;" glyph-name="like-outline" d="M742.4 896c-89.088 0-174.592-41.472-230.4-107.008-55.808 65.536-141.312 107.008-230.4 107.008-157.696 0-281.6-123.904-281.6-281.6 0-193.536 174.080-351.232 437.76-590.848l74.24-67.072 74.24 67.584c263.68 239.104 437.76 396.8 437.76 590.336 0 157.696-123.904 281.6-281.6 281.6v0zM517.2 95.4l-5.2-5.2-5.2 5.2c-247.52 224.12-410.8 372.32-410.8 522.6 0 104 78 182 182 182 80.080 0 158.080-51.48 185.64-122.72h97.24c27.040 71.24 105.040 122.72 185.12 122.72 104 0 182-78 182-182 0-150.28-163.28-298.48-410.8-522.6v0z" />
<glyph unicode="&#xe9018;" glyph-name="next" d="M496 960l-64-64 384-384h-816v-96h816l-384-384 64-64 496 496z" />
<glyph unicode="&#xe9019;" glyph-name="pdf" d="M68.267 960h449.59c18.105 0 35.469-7.192 48.272-19.995l164.81-164.81c12.802-12.802 19.995-30.166 19.995-48.272v-142.39h204.8c37.703 0 68.267-30.564 68.267-68.267v-341.333c0-37.703-30.564-68.267-68.267-68.267h-204.8v-102.4c0-37.703-30.564-68.267-68.267-68.267h-614.4c-37.703 0-68.267 30.564-68.267 68.267v887.467c0 37.703 30.564 68.267 68.267 68.267zM85.333 908.8c-18.851 0-34.133-15.282-34.133-34.133v-853.333c0-18.851 15.282-34.133 34.133-34.133h580.267c18.851 0 34.133 15.282 34.133 34.133v85.333h-358.4c-37.703 0-68.267 30.564-68.267 68.267v341.333c0 37.703 30.564 68.267 68.267 68.267h358.4v102.4h-187.733c-18.851 0-34.133 15.282-34.133 34.133v187.733h-392.533zM540.721 897.146c-1.28 1.28-3.017 1.999-4.827 1.999-3.77 0-6.827-3.056-6.827-6.827v-147.359c0-3.77 3.056-6.827 6.827-6.827h147.359c1.811 0 3.547 0.719 4.827 1.999 2.666 2.666 2.666 6.988 0 9.654l-147.359 147.359zM358.4 533.333c-18.851 0-34.133-15.282-34.133-34.133v-307.2c0-18.851 15.282-34.133 34.133-34.133h580.267c18.851 0 34.133 15.282 34.133 34.133v307.2c0 18.851-15.282 34.133-34.133 34.133h-580.267zM563.133 377.933c0-15.733-4.917-27.767-14.75-36.1s-23.817-12.5-41.95-12.5h-13.3v-52h-31v146.2h46.7c17.733 0 31.217-3.817 40.45-11.45s13.85-19.017 13.85-34.15zM493.133 354.733h10.2c9.533 0 16.667 1.883 21.4 5.65s7.1 9.25 7.1 16.45c0 7.267-1.983 12.633-5.95 16.1s-10.183 5.2-18.65 5.2h-14.1v-43.4zM712.033 351.833c0-24.067-6.85-42.5-20.55-55.3s-33.483-19.2-59.35-19.2h-41.4v146.2h45.9c23.867 0 42.4-6.3 55.6-18.9s19.8-30.2 19.8-52.8zM679.833 351.033c0 31.4-13.867 47.1-41.6 47.1h-16.5v-95.2h13.3c29.867 0 44.8 16.033 44.8 48.1zM772.833 277.333h-30.5v146.2h83.8v-25.4h-53.3v-37.7h49.6v-25.3h-49.6v-57.8z" />
<glyph unicode="&#xe901a;" glyph-name="play" d="M273.067 960v-1024l682.667 512z" />
<glyph unicode="&#xe901b;" glyph-name="search-solid" d="M731.429 320h-51.2l-11.028 11.783c57.377 66.744 91.92 153.395 91.92 247.657 0 210.186-170.374 380.56-380.56 380.56s-380.56-170.374-380.56-380.56c0-210.186 170.374-380.56 380.56-380.56 94.262 0 180.913 34.543 247.657 91.92l11.783-11.028v-51.2l292.571-292.571 91.429 91.429-292.571 292.571zM109.714 579.657c0 149.748 120.881 270.629 270.629 270.629s270.629-120.881 270.629-270.629c0-149.748-120.881-270.629-270.629-270.629s-270.629 120.881-270.629 270.629z" />
<glyph unicode="&#xe901c;" glyph-name="send" d="M0-64l1024 512-1024 512v-320l640-192-640-192z" />
<glyph unicode="&#xe901d;" glyph-name="show-outline" d="M0 480c110.72 280.96 320 416 512 416s401.28-135.040 512-416c-110.72-280.96-320-416-512-416s-401.28 135.040-512 416zM112 480c93.105-215.403 258.909-304 400-304s306.895 88.597 400 304c-93.105 215.403-258.909 304-400 304s-306.895-88.597-400-304zM320 480c0 105.984 86.016 192 192 192s192-86.016 192-192c0-105.984-86.016-192-192-192s-192 86.016-192 192zM416 480c0-53.12 42.88-96 96-96s96 42.88 96 96c0 53.12-42.88 96-96 96s-96-42.88-96-96z" />
<glyph unicode="&#xe901e;" glyph-name="warning" d="M300.797 960h422.406l300.797-300.801v-422.398l-300.797-300.801h-422.406l-300.797 300.801v422.398l300.797 300.801zM432 176c0-44.308 35.692-80 80-80s80 35.692 80 80c0 44.308-35.692 80-80 80s-80-35.692-80-80zM448 384h128v384h-128v-384z" />
<glyph unicode="&#xe901f;" glyph-name="logout" d="M704 704h-128v64c0 35.346-28.654 64-64 64h-320c-35.346 0-64-28.654-64-64v-640c0-35.346 28.654-64 64-64h320c35.346 0 64 28.654 64 64v64h128v-128c0-70.692-57.308-128-128-128h-448c-70.692 0-128 57.308-128 128v768c0 70.692 57.308 128 128 128h448c70.692 0 128-57.308 128-128v-128zM448 496h342.398l-66.961 60.8 76.563 83.2 192-191.906-192-192.094-76.563 83.2 66.961 60.8h-342.398v96z" />
<glyph unicode="&#xe9020;" glyph-name="menu" d="M51.2 806.4h921.6v-102.4h-921.6v102.4zM51.2 499.2h921.6v-102.4h-921.6v102.4zM51.2 192h921.6v-102.4h-921.6v102.4z" />
<glyph unicode="&#xe9021;" glyph-name="message" d="M101.929 857.6c-56.294 0-101.929-45.799-101.929-102.096v-615.008c0-56.386 45.988-102.096 101.929-102.096h820.143c56.294 0 101.929 45.799 101.929 102.096v615.008c0 56.386-45.988 102.096-101.929 102.096h-820.143zM76.8 729.6c0 28.277 23.281 51.2 51.198 51.2h768.004c28.276 0 51.198-23.203 51.198-51.2v0l-435.2-281.6-435.2 281.6zM127.998 115.2c-28.276 0-51.198 23.33-51.198 50.964v461.036l435.2-281.6 435.2 281.6v-461.036c0-28.147-23.281-50.964-51.198-50.964h-768.004z" />
<glyph unicode="&#xe9022;" glyph-name="notification" d="M819.2 524.8c0 158.72-81.919 286.72-230.4 322.56v35.84c0 42.496-34.304 76.8-76.8 76.8s-76.8-34.304-76.8-76.8v-35.84c-148.481-35.84-230.4-163.84-230.4-322.56v-256l-102.4-102.4v-51.2h819.2v51.2l-102.4 102.4v256zM230.4 192l51.2 51.2v281.6c0 102.4 51.2 256 230.4 256s230.4-153.6 230.4-256v-281.6l51.2-51.2h-563.2zM614.4 38.4h-204.8c0-56.32 46.080-102.4 102.4-102.4s102.4 46.080 102.4 102.4z" />
<glyph unicode="&#xe9023;" glyph-name="notifications" d="M896 384v128h-768v-128h768zM768 128v128h-768v-128h768zM256 640h768v128h-768v-128z" />
<glyph unicode="&#xe9024;" glyph-name="search" d="M678.4 345.6h-27.648l-14.336 13.824c50.176 58.368 80.384 134.144 80.384 216.576 0 183.808-148.992 332.8-332.8 332.8s-332.8-148.992-332.8-332.8c0-183.808 148.992-332.8 332.8-332.8 82.432 0 158.208 30.208 216.576 80.384l13.824-14.336v-27.648l268.8-268.8 64 64-268.8 268.8zM128 576c0 141.653 114.347 256 256 256s256-114.347 256-256c0-141.653-114.347-256-256-256s-256 114.347-256 256z" />
<glyph unicode="&#xe9025;" glyph-name="add-round" d="M512-64c-282.77 0-512 229.23-512 512s229.23 512 512 512c282.77 0 512-229.23 512-512s-229.23-512-512-512zM512 64c212.077 0 384 171.923 384 384s-171.923 384-384 384c-212.077 0-384-171.923-384-384s171.923-384 384-384zM576 512h192v-128h-192v-192h-128v192h-192v128h192v192h128v-192z" />
<glyph unicode="&#xe9026;" glyph-name="arrow-down" d="M903.68 755.2l-391.68-390.827-391.68 390.827-120.32-120.32 512-512 512 512z" />
<glyph unicode="&#xe9027;" glyph-name="arrow-left" d="M829.441 55.809l-121.856-119.809-513.025 512 513.025 512 121.422-120.831-391.759-391.169z" />
<glyph unicode="&#xe9028;" glyph-name="arrow-right" d="M194.56 55.809l121.856-119.809 513.025 512-513.025 512-121.422-120.831 391.759-391.169z" />
<glyph unicode="&#xe9029;" glyph-name="arrow-up" d="M122.88 120.32l389.12 394.24 389.12-394.24 122.88 122.405-512 512.475-512-512.475z" />
<glyph unicode="&#xe902a;" glyph-name="clock" d="M511.488 960c-282.624 0-511.488-229.376-511.488-512s228.864-512 511.488-512c283.136 0 512.512 229.376 512.512 512s-229.376 512-512.512 512v0zM96 448c0 229.84 186.16 416 416 416s416-186.16 416-416c0-229.84-186.16-416-416-416s-416 186.16-416 416zM448 678.4h96v-217.6l179.199-179.201-70.398-64-204.801 205.141v255.66z" />
<glyph unicode="&#xe902b;" glyph-name="clock-min" d="M511.561 886.857c-242.249 0-438.418-196.608-438.418-438.857s196.169-438.857 438.418-438.857c242.688 0 439.296 196.608 439.296 438.857s-196.608 438.857-439.296 438.857v0zM182.857 448c0 181.851 147.291 329.143 329.143 329.143s329.143-147.291 329.143-329.143c0-181.851-147.291-329.143-329.143-329.143s-329.143 147.291-329.143 329.143zM438.857 638.172h109.714v-175.542l131.656-131.658-80.455-73.143-160.915 161.304v219.040z" />
<glyph unicode="&#xe902c;" glyph-name="comment" d="M127.62 960c-70.483 0-127.62-57.249-127.62-127.62v-896.38l204.8 128h691.2c70.692 0 128 57.412 128 128.375v639.25c0 70.9-57.249 128.375-127.62 128.375h-768.76zM179.2 160l-83.2-48v687.885c0 35.41 28.639 64.115 63.904 64.115h704.192c35.293 0 63.904-28.47 63.904-63.717v-576.566c0-35.19-28.439-63.717-63.842-63.717h-684.958z" />
<glyph unicode="&#xe902d;" glyph-name="complete" d="M352 288l-192 192-96-96 288-288 576 576-96 96z" />
<glyph unicode="&#xe902e;" glyph-name="doc" d="M68.267 960h449.59c18.105 0 35.469-7.192 48.272-19.995l164.81-164.81c12.802-12.802 19.995-30.166 19.995-48.272v-142.39h204.8c37.703 0 68.267-30.564 68.267-68.267v-341.333c0-37.703-30.564-68.267-68.267-68.267h-204.8v-102.4c0-37.703-30.564-68.267-68.267-68.267h-614.4c-37.703 0-68.267 30.564-68.267 68.267v887.467c0 37.703 30.564 68.267 68.267 68.267zM85.333 908.8c-18.851 0-34.133-15.282-34.133-34.133v-853.333c0-18.851 15.282-34.133 34.133-34.133h580.267c18.851 0 34.133 15.282 34.133 34.133v85.333h-358.4c-37.703 0-68.267 30.564-68.267 68.267v341.333c0 37.703 30.564 68.267 68.267 68.267h358.4v102.4h-187.733c-18.851 0-34.133 15.282-34.133 34.133v187.733h-392.533zM540.721 897.146c-1.28 1.28-3.017 1.999-4.827 1.999-3.77 0-6.827-3.056-6.827-6.827v-147.359c0-3.77 3.056-6.827 6.827-6.827h147.359c1.811 0 3.547 0.719 4.827 1.999 2.666 2.666 2.666 6.988 0 9.654l-147.359 147.359zM358.4 533.333c-18.851 0-34.133-15.282-34.133-34.133v-307.2c0-18.851 15.282-34.133 34.133-34.133h580.267c18.851 0 34.133 15.282 34.133 34.133v307.2c0 18.851-15.282 34.133-34.133 34.133h-580.267zM565.033 339.867c0-24.067-6.85-42.5-20.55-55.3s-33.483-19.2-59.35-19.2h-41.4v146.2h45.9c23.867 0 42.4-6.3 55.6-18.9s19.8-30.2 19.8-52.8zM532.833 339.067c0 31.4-13.867 47.1-41.6 47.1h-16.5v-95.2h13.3c29.867 0 44.8 16.033 44.8 48.1zM728.033 338.667c0-24.2-6-42.8-18-55.8s-29.2-19.5-51.6-19.5c-22.4 0-39.6 6.5-51.6 19.5s-18 31.667-18 56c0 24.333 6.017 42.917 18.050 55.75s29.283 19.25 51.75 19.25c22.467 0 39.65-6.467 51.55-19.4s17.85-31.533 17.85-55.8zM621.333 338.667c0-16.333 3.1-28.633 9.3-36.9s15.467-12.4 27.8-12.4c24.733 0 37.1 16.433 37.1 49.3 0 32.933-12.3 49.4-36.9 49.4-12.333 0-21.633-4.15-27.9-12.45s-9.4-20.617-9.4-36.95zM820.433 387.867c-11.667 0-20.7-4.383-27.1-13.15s-9.6-20.983-9.6-36.65c0-32.6 12.233-48.9 36.7-48.9 10.267 0 22.7 2.567 37.3 7.7v-26c-12-5-25.4-7.5-40.2-7.5-21.267 0-37.533 6.45-48.8 19.35s-16.9 31.417-16.9 55.55c0 15.2 2.767 28.517 8.3 39.95s13.483 20.2 23.85 26.3c10.367 6.1 22.517 9.15 36.45 9.15 14.2 0 28.467-3.433 42.8-10.3l-10-25.2c-5.467 2.6-10.967 4.867-16.5 6.8s-10.967 2.9-16.3 2.9z" />
<glyph unicode="&#xe902f;" glyph-name="edit" d="M512 795.246l-365.714-365.714v-164.389h164.571l365.714 365.714-164.571 164.389zM819.931 877.349c28.526-28.526 28.526-74.606 0-103.131l-70.217-70.217-164.571 164.389 70.217 70.217c28.526 28.526 74.606 28.526 103.131 0l61.44-61.257zM0 82.103h1024v-146.286h-1024v146.286z" />
<glyph unicode="&#xe9030;" glyph-name="error" d="M492.829 556.829l275.171 275.171 89.6-89.6-275.178-275.178 275.178-275.222-89.6-89.6-275.2 275.2-275.2-275.2-89.6 89.6 275.2 275.2-275.2 275.2 89.703 89.6 275.126-275.171z" />
</font>
</defs>
</svg>
